<svg width="200" height="200" viewBox="0 0 200 200" fill="none" xmlns="http://www.w3.org/2000/svg">
<path fill-rule="evenodd" clip-rule="evenodd" d="M82.5742 93.0793C54.4763 112.6 46.714 143.032 46.714 157.673C46.714 172.314 57.5832 189.449 82.5742 179.156V93.0793Z" fill="#0069DC"/>
<path fill-rule="evenodd" clip-rule="evenodd" d="M89.5656 37.5385L117.531 17V157.19L89.5656 176.975V37.5385Z" fill="#3FC1F9"/>
<path fill-rule="evenodd" clip-rule="evenodd" d="M12.6609 93.778L39.7464 72.8531V162.231L12.6609 181.636V93.778Z" fill="#4DDC4F"/>
<path fill-rule="evenodd" clip-rule="evenodd" d="M124.522 64.7247L152.488 43.8864V161.203L124.522 181.636V64.7247Z" fill="#4DDC4F"/>
<path fill-rule="evenodd" clip-rule="evenodd" d="M174.686 74.2874C184.372 70.6349 192.224 61.5742 192.224 54.0498C192.224 46.5254 184.372 43.3867 174.686 47.0392C165 50.6917 157.148 59.7523 157.148 67.2767C157.148 74.8011 165 77.9399 174.686 74.2874Z" fill="#0069DC"/>
<path fill-rule="evenodd" clip-rule="evenodd" d="M24.1888 74.4047C33.1297 71.0332 40.3777 62.6695 40.3777 55.7239C40.3777 48.7783 33.1297 45.881 24.1888 49.2525C15.248 52.6241 8 60.9878 8 67.9333C8 74.8789 15.248 77.7763 24.1888 74.4047Z" fill="#0069DC"/>
</svg>
